<svg aria-hidden="true" style="position: absolute; width: 0; height: 0; overflow: hidden;" version="1.1" xmlns="http://www.w3.org/2000/svg" xmlns:xlink="http://www.w3.org/1999/xlink">
<defs>
<symbol id="icon-antenna" viewBox="0 0 32 32">
<path fill="#2e2f42" style="fill: var(--color1, #2e2f42)" d="M30.775 22.099l-8.444-8.506 0.937-4.616c0.225 0.090 0.485 0.144 0.758 0.146h0.007c1.192 0.014 2.17-0.941 2.184-2.133s-0.941-2.17-2.133-2.184c-1.192-0.014-2.17 0.941-2.184 2.133-0 0.008-0 0.017-0 0.026 0 0.259 0.046 0.508 0.13 0.739l-0.005-0.015-4.96 0.605-8.091-8.133c-0.096-0.098-0.229-0.159-0.376-0.16h-0c-0.14 0.001-0.274 0.057-0.373 0.155l-1.513 1.504c-0.208 0.208-0.208 0.546 0 0.754l0.814 0.826c-3.153 5.798-2.129 12.979 2.52 17.664 0.043 0.041 0.092 0.074 0.146 0.098-0.032 0.164-0.051 0.353-0.052 0.546v6.188h-6.4c-1.472 0.002-2.665 1.195-2.667 2.667v1.067c0 0.295 0.239 0.533 0.533 0.533h24.535c0.295 0 0.533-0.239 0.533-0.533v-1.067c-0.002-1.472-1.195-2.665-2.667-2.667h-6.4v-2.742c0.915 0.201 1.968 0.317 3.047 0.32h0.002c2.58-0.003 5.005-0.663 7.118-1.822l-0.077 0.039 0.818 0.823c0.099 0.101 0.235 0.159 0.377 0.16 0.14-0.001 0.274-0.056 0.373-0.155l1.513-1.504c0.208-0.208 0.208-0.546 0-0.754zM23.281 6.233c0.418-0.415 1.093-0.414 1.509 0.004s0.414 1.093-0.004 1.509c-0.193 0.192-0.459 0.31-0.752 0.31-0 0-0 0-0 0h-0.003c-0.589-0.003-1.064-0.483-1.061-1.072 0.002-0.294 0.122-0.559 0.314-0.751l0-0h-0.002zM22.026 9.738l-0.598 2.946-1.176-1.182 1.774-1.763zM21.42 8.836l-1.92 1.909-1.485-1.493 3.406-0.415zM24.006 28.802c0.884 0 1.6 0.716 1.6 1.6v0.533h-23.468v-0.533c0-0.884 0.716-1.6 1.6-1.6h20.268zM16.538 26.668v1.067h-5.334v-1.067h5.334zM11.205 25.602v-4.054c0-1.294 1.196-2.347 2.667-2.347s2.667 1.053 2.667 2.347v4.054h-5.334zM17.605 23.905v-2.358c0-1.882-1.675-3.413-3.734-3.413-0.017-0-0.038-0-0.058-0-1.353 0-2.54 0.707-3.214 1.771l-0.009 0.016c-4.058-4.274-4.972-10.646-2.279-15.888l18.603 18.71c-1.823 0.947-3.98 1.502-6.267 1.502-1.079 0-2.128-0.124-3.136-0.357l0.093 0.018zM28.895 23.222l-21.058-21.182 0.755-0.752 7.935 7.98c0.004 0 0.006 0.007 0.010 0.010l13.115 13.192-0.757 0.752z"></path>
<path fill="#4d5ae5" style="fill: var(--color2, #4d5ae5)" d="M13.876 20.268h-0.005c-0.884-0.001-1.601 0.714-1.602 1.598s0.714 1.601 1.598 1.602h0.005c0.884 0.001 1.601-0.714 1.602-1.598s-0.714-1.601-1.598-1.602zM14.25 22.246c-0.096 0.096-0.229 0.155-0.376 0.155-0.001 0-0.001 0-0.002 0h0c-0.295-0.002-0.532-0.242-0.531-0.536 0.001-0.147 0.061-0.279 0.157-0.375l0-0c0.096-0.095 0.228-0.154 0.373-0.155h0c0.295 0.002 0.532 0.242 0.531 0.536-0.001 0.147-0.061 0.279-0.157 0.375l-0 0h0.005z"></path>
</symbol>
<symbol id="icon-astronaut" viewBox="0 0 32 32">
<path fill="#4d5ae5" style="fill: var(--color2, #4d5ae5)" d="M31.976 4.524c-0.064-0.191-0.227-0.332-0.427-0.362l-0.003-0-1.91-0.278-0.855-1.731c-0.179-0.365-0.777-0.365-0.956 0l-0.855 1.731-1.911 0.278c-0.203 0.030-0.367 0.171-0.43 0.359l-0.001 0.004c-0.062 0.193-0.011 0.405 0.135 0.547l1.383 1.348-0.326 1.903c-0.034 0.2 0.048 0.402 0.212 0.522 0.087 0.064 0.196 0.102 0.313 0.102 0.091 0 0.177-0.023 0.252-0.063l-0.003 0.001 1.709-0.899 1.709 0.899c0.072 0.039 0.158 0.061 0.248 0.061 0 0 0 0 0 0v0c0.11 0 0.221-0.034 0.314-0.102 0.134-0.098 0.22-0.254 0.22-0.431 0-0.032-0.003-0.063-0.008-0.094l0 0.003-0.326-1.903 1.383-1.348c0.099-0.097 0.161-0.233 0.161-0.382 0-0.059-0.009-0.115-0.027-0.168l0.001 0.004zM29.513 5.851c-0.099 0.097-0.161 0.232-0.161 0.382 0 0.032 0.003 0.063 0.008 0.094l-0-0.003 0.191 1.114-1.001-0.526c-0.072-0.039-0.157-0.061-0.248-0.061-0 0-0 0-0.001 0h0c-0.085 0-0.17 0.020-0.249 0.061l-1.001 0.526 0.191-1.114c0.005-0.027 0.008-0.058 0.008-0.090 0-0.15-0.062-0.285-0.161-0.382l-0.81-0.789 1.119-0.163c0.177-0.026 0.324-0.137 0.4-0.289l0.001-0.003 0.5-1.013 0.5 1.013c0.078 0.157 0.228 0.267 0.402 0.292l1.119 0.163-0.809 0.789zM26.135 20.523h-1.067v1.067h1.067v-1.067zM26.135 22.657h-1.067v1.067h1.067v-1.067zM27.202 21.59h-1.067v1.067h1.067v-1.067z"></path>
<path fill="#4d5ae5" style="fill: var(--color2, #4d5ae5)" d="M25.068 21.59h-1.067v1.067h1.067v-1.067zM22.401 26.391h-1.067v1.067h1.067v-1.067zM22.401 28.524h-1.067v1.067h1.067v-1.067zM23.468 27.457h-1.067v1.067h1.067v-1.067zM21.335 27.457h-1.067v1.067h1.067v-1.067zM16.001 24.257h-1.067v1.067h1.067v-1.067zM16.001 26.391h-1.067v1.067h1.067v-1.067zM17.068 25.324h-1.067v1.067h1.067v-1.067zM14.934 25.324h-1.067v1.067h1.067v-1.067zM5.867 6.122h-1.067v1.067h1.067v-1.067zM5.867 8.256h-1.067v1.067h1.067v-1.067z"></path>
<path fill="#4d5ae5" style="fill: var(--color2, #4d5ae5)" d="M6.934 7.189h-1.067v1.067h1.067v-1.067zM4.8 7.189h-1.067v1.067h1.067v-1.067z"></path>
<path fill="#2e2f42" style="fill: var(--color1, #2e2f42)" d="M24.716 14.16c-0.287-0.388-0.709-0.637-1.188-0.705-0.481-0.068-0.956 0.058-1.34 0.352l-1.252 0.96-1.898 1.417-1.358-0.541c2.422-1.086 4.114-3.508 4.114-6.32 0-3.823-3.123-6.934-6.962-6.934s-6.962 3.111-6.962 6.934c0 1.386 0.414 2.674 1.12 3.759l-2.769-0.024c-0.009 0-0.015 0.004-0.023 0.005-0.056 0.003-0.109 0.014-0.159 0.032l0.004-0.001c-0.013 0.005-0.026 0.008-0.038 0.013-0.006 0.003-0.013 0.003-0.019 0.006l-3.233 1.596c-0.001 0-0.001 0-0.001 0.001l-1.894 0.911c-0.024 0.011-0.045 0.023-0.064 0.036l0.001-0.001c-0.755 0.502-1.012 1.489-0.599 2.296 0.22 0.429 0.595 0.745 1.056 0.889 0.161 0.052 0.347 0.082 0.539 0.083h0c0.29 0 0.577-0.071 0.84-0.211l1.388-0.738 2.264-1.169 1.357-0.008-5.442 5.416c-0.001 0.001-0.001 0.001-0.002 0.001l-1.339 1.333c-0.316 0.315-0.49 0.732-0.49 1.178s0.174 0.863 0.49 1.179c0.325 0.323 0.752 0.485 1.179 0.485s0.854-0.162 1.18-0.485l1.314-1.309 1.741-1.3 0.901 0.897-1.762 1.754c-0 0.001-0.001 0.001-0.002 0.001l-1.339 1.333c-0.316 0.315-0.49 0.732-0.49 1.178s0.174 0.863 0.49 1.179c0.325 0.323 0.753 0.485 1.18 0.485s0.855-0.162 1.18-0.485l3.482-3.467c0.001-0.001 0.001-0.001 0.001-0.002l1.010-1-0.004-0.004c0.006-0.006 0.015-0.009 0.022-0.015l5.166-5.659 3.471 0.494c0.025 0.004 0.050 0.005 0.075 0.005 0.065 0 0.127-0.015 0.187-0.038 0.018-0.006 0.033-0.015 0.050-0.023 0.019-0.010 0.039-0.015 0.058-0.027l3.214-2.133c0.012-0.008 0.018-0.021 0.029-0.029 0.013-0.010 0.029-0.014 0.041-0.026l1.272-1.191c0.662-0.62 0.753-1.635 0.212-2.362zM2.131 17.771c-0.173 0.093-0.37 0.111-0.558 0.052-0.187-0.058-0.338-0.186-0.427-0.358-0.161-0.314-0.068-0.696 0.214-0.902l1.314-0.632 0.449 1.313-0.992 0.528zM5.628 15.943l-1.548 0.8-0.256-0.747-0.183-0.537 2.027-1.001-0.040 1.484zM20.728 9.323c0 0.918-0.219 1.785-0.599 2.56l-4.182-1.899c-0.044-0.573-0.341-1.075-0.788-1.388l1.464-4.861c2.378 0.756 4.105 2.975 4.105 5.588zM8.939 9.323c0-3.235 2.644-5.867 5.895-5.867 0.253 0 0.5 0.021 0.745 0.052l-1.432 4.754c-0.019-0.001-0.037-0.006-0.057-0.006-1.033 0-1.873 0.837-1.873 1.867s0.84 1.867 1.873 1.867c0.694 0 1.294-0.383 1.618-0.945l3.863 1.755c-1.075 1.446-2.795 2.39-4.737 2.39-3.25 0-5.895-2.632-5.895-5.867zM14.895 10.123c0 0.441-0.362 0.8-0.806 0.8s-0.806-0.359-0.806-0.8c0-0.441 0.362-0.8 0.806-0.8s0.806 0.359 0.806 0.8zM2.465 25.148c-0.236 0.234-0.619 0.234-0.854 0.001-0.114-0.114-0.176-0.263-0.176-0.423s0.062-0.309 0.176-0.421l0.962-0.959 0.851 0.848-0.959 0.955zM5.679 28.881c-0.236 0.234-0.619 0.235-0.855 0.001-0.114-0.114-0.176-0.263-0.176-0.423s0.062-0.309 0.176-0.421l0.963-0.959 0.852 0.848-0.96 0.955zM9.161 25.412c-0.001 0-0.001 0-0.002 0.001l-1.765 1.76-0.852-0.848 1.763-1.756c0.001-0.001 0.001-0.001 0.002-0.001 0.040-0.040 0.065-0.088 0.090-0.135 0.007-0.014 0.020-0.026 0.026-0.040 0.017-0.041 0.019-0.085 0.026-0.129 0.003-0.025 0.014-0.047 0.014-0.073 0-0.036-0.013-0.070-0.020-0.106-0.006-0.032-0.006-0.065-0.019-0.095-0.020-0.050-0.055-0.094-0.091-0.138-0.010-0.012-0.014-0.027-0.025-0.038h-0.001c-0.001-0-0.001-0.002-0.001-0.002l-1.607-1.6c-0.017-0.017-0.039-0.024-0.058-0.038-0.028-0.022-0.055-0.042-0.087-0.058-0.030-0.015-0.061-0.024-0.093-0.033-0.034-0.010-0.067-0.017-0.103-0.020-0.033-0.002-0.063 0.001-0.095 0.005-0.036 0.004-0.069 0.009-0.104 0.020-0.034 0.011-0.063 0.027-0.094 0.045-0.020 0.011-0.042 0.015-0.061 0.029l-1.773 1.324-0.901-0.897 2.399-2.386 4.361 4.289-0.928 0.919zM15.98 18.395c-0.015-0.002-0.030 0.004-0.045 0.003-0.008-0-0.017-0.001-0.026-0.001-0.031 0-0.062 0.003-0.092 0.008l0.003-0c-0.030 0.005-0.059 0.011-0.088 0.021-0.034 0.012-0.065 0.028-0.097 0.047s-0.059 0.039-0.084 0.062l0-0c-0.013 0.011-0.028 0.017-0.040 0.029l-4.699 5.146-4.328-4.257 2.833-2.818c0.209-0.208 0.21-0.546 0.002-0.755-0.105-0.105-0.243-0.157-0.381-0.156v-0.001l-2.219 0.013 0.028-1.608 3.104 0.027c1.265 1.294 3.030 2.101 4.982 2.101 0.437 0 0.864-0.045 1.28-0.123 0.040 0.032 0.079 0.065 0.13 0.085l2.41 0.96 0.152 0.758 0.178 0.885-3.003-0.427zM20.021 18.573l-0.313-1.558 1.446-1.080 0.947 1.257-2.080 1.381zM23.775 15.742l-0.838 0.785-0.931-1.236 0.831-0.637c0.155-0.119 0.351-0.168 0.543-0.143 0.193 0.027 0.364 0.128 0.48 0.284 0.088 0.117 0.141 0.265 0.141 0.426 0 0.206-0.087 0.391-0.226 0.521l-0 0z"></path>
<path fill="#2e2f42" style="fill: var(--color1, #2e2f42)" d="M13.603 18.545l-2.143-2.133c-0.207-0.207-0.545-0.207-0.753 0l-2.143 2.133c-0.097 0.097-0.157 0.23-0.157 0.378v0c0 0.142 0.056 0.278 0.157 0.378l2.143 2.133c0.104 0.103 0.241 0.155 0.377 0.155s0.273-0.052 0.376-0.155l2.143-2.133c0.097-0.097 0.157-0.23 0.157-0.378v-0c0-0.142-0.057-0.278-0.157-0.378zM11.084 20.304l-1.387-1.381 1.387-1.381 1.387 1.381-1.387 1.381zM17.165 5.071l-0.258 1.036c0.071 0.018 1.738 0.452 1.738 2.149h1.067c-0-2.017-1.666-2.966-2.547-3.185zM19.712 9.323h-1.067v1.067h1.067v-1.067z"></path>
</symbol>
<symbol id="icon-clock" viewBox="0 0 32 32">
<path fill="#2e2f42" style="fill: var(--color1, #2e2f42)" d="M31.298 15.302c-0.002-8.453-6.856-15.304-15.309-15.302s-15.304 6.856-15.302 15.309c0.001 6.658 4.307 12.552 10.65 14.577 0.055 0.018 0.119 0.029 0.185 0.029 0.001 0 0.001 0 0.002 0h-0c0.126-0 0.245-0.035 0.346-0.095l-0.003 0.002c0.135-0.080 0.236-0.207 0.283-0.356l3.865-12.251c1.057-0.005 1.909-0.866 1.903-1.923s-0.866-1.909-1.923-1.903c-0.299 0.001-0.581 0.072-0.831 0.196l0.011-0.005-5.106-5.107c-0.253-0.245-0.657-0.238-0.902 0.016-0.239 0.247-0.239 0.639 0 0.886l5.104 5.109c-0.392 0.799-0.168 1.764 0.536 2.309l-3.683 11.674c-7.278-2.681-11.005-10.755-8.324-18.033s10.755-11.005 18.033-8.324c7.278 2.681 11.005 10.755 8.324 18.033-1.345 3.581-4.004 6.406-7.375 7.938l-0.088 0.036-0.398-1.874c-0.073-0.345-0.411-0.565-0.756-0.492-0.114 0.025-0.213 0.077-0.293 0.149l0.001-0.001-3.837 3.426c-0.263 0.234-0.287 0.637-0.052 0.9 0.076 0.085 0.174 0.149 0.283 0.184l4.899 1.564c0.335 0.108 0.694-0.077 0.802-0.412 0.019-0.058 0.031-0.126 0.031-0.195 0-0.047-0.005-0.092-0.015-0.136l0.001 0.004-0.391-1.839c5.665-2.388 9.343-7.943 9.329-14.090zM15.993 14.664c0.352 0 0.638 0.286 0.638 0.638s-0.286 0.638-0.638 0.638c-0.352 0-0.638-0.285-0.638-0.638s0.285-0.638 0.638-0.638zM18.094 29.529l2.184-1.948 0.603 2.84-2.787-0.892z"></path>
<path fill="#4d5ae5" style="fill: var(--color2, #4d5ae5)" d="M15.355 3.185v1.276c0 0.352 0.285 0.638 0.638 0.638s0.638-0.285 0.638-0.638v-1.276c0-0.352-0.286-0.638-0.638-0.638s-0.638 0.286-0.638 0.638zM3.876 14.664c-0.352 0-0.638 0.286-0.638 0.638s0.285 0.638 0.638 0.638h1.275c0.352 0 0.638-0.285 0.638-0.638s-0.285-0.638-0.638-0.638h-1.275zM28.11 15.94c0.352 0 0.638-0.285 0.638-0.638s-0.285-0.638-0.638-0.638h-1.275c-0.352 0-0.638 0.286-0.638 0.638s0.286 0.638 0.638 0.638h1.275z"></path>
</symbol>
<symbol id="icon-diagram" viewBox="0 0 32 32">
<path fill="#4d5ae5" style="fill: var(--color2, #4d5ae5)" d="M14.926 14.965h1.066v4.798h-1.066v-4.798zM19.191 17.098h1.066v2.665h-1.066v-2.665zM10.662 18.697h1.066v1.066h-1.066v-1.066zM7.463 18.164h1.066v1.599h-1.066v-1.599z"></path>
<path fill="#2e2f42" style="fill: var(--color1, #2e2f42)" d="M1.599 28.293h25.588c0.883 0 1.599-0.716 1.599-1.599v-2.132c0-0.883-0.716-1.599-1.599-1.599h-0.533v-13.294l3.028-2.868c0.703 0.346 1.553 0.136 2.013-0.499s0.396-1.508-0.152-2.069c-0.548-0.56-1.42-0.644-2.065-0.198s-0.874 1.292-0.542 2.002l-2.281 2.163v-1.23c0-0.883-0.716-1.599-1.599-1.599h-21.323c-0.883 0-1.599 0.716-1.599 1.599v15.993h-0.533c-0.883 0-1.599 0.716-1.599 1.599v2.132c0 0.883 0.716 1.599 1.599 1.599zM30.386 4.837c0.294 0 0.533 0.239 0.533 0.533s-0.239 0.533-0.533 0.533c-0.294 0-0.533-0.239-0.533-0.533s0.239-0.533 0.533-0.533zM3.199 6.969c0-0.294 0.239-0.533 0.533-0.533h21.323c0.294 0 0.533 0.239 0.533 0.533v2.239l-1.066 1.013v-2.186c0-0.294-0.239-0.533-0.533-0.533h-19.191c-0.294 0-0.533 0.239-0.533 0.533v13.327c0 0.294 0.239 0.533 0.533 0.533h19.191c0.294 0 0.533-0.239 0.533-0.533v-9.675l1.066-1.010v12.284h-22.39v-15.993zM7.996 13.899c-0.721-0.002-1.355 0.478-1.546 1.174s0.105 1.433 0.725 1.801c0.62 0.368 1.41 0.276 1.928-0.226l1.853 0.93c0.069 0.035 0.151 0.056 0.238 0.056 0.158 0 0.3-0.069 0.398-0.178l0-0.001 3.939-4.432 3.872 2.902c0.208 0.156 0.498 0.139 0.686-0.039l3.365-3.188v8.132h-18.125v-12.261h18.125v2.66l-3.772 3.572-3.905-2.927c-0.088-0.066-0.199-0.107-0.32-0.107-0.158 0-0.3 0.069-0.398 0.178l-0 0.001-3.993 4.493-1.493-0.747c0.010-0.056 0.017-0.123 0.020-0.19l0-0.003c0-0.883-0.716-1.599-1.599-1.599zM8.529 15.499c0 0.294-0.239 0.533-0.533 0.533s-0.533-0.239-0.533-0.533c0-0.294 0.239-0.533 0.533-0.533s0.533 0.239 0.533 0.533zM11.728 24.028h5.331v0.533c0 0.294-0.239 0.533-0.533 0.533h-4.265c-0.294 0-0.533-0.239-0.533-0.533v-0.533zM1.066 24.561c0-0.294 0.239-0.533 0.533-0.533h9.062v0.533c0 0.883 0.716 1.599 1.599 1.599h4.265c0.883 0 1.599-0.716 1.599-1.599v-0.533h9.062c0.294 0 0.533 0.239 0.533 0.533v2.132c0 0.294-0.239 0.533-0.533 0.533h-25.588c-0.294 0-0.533-0.239-0.533-0.533v-2.132z"></path>
</symbol>
<symbol id="icon-Logo-1" viewBox="0 0 59 32">
<path d="M21.716 4.001l4.005 3.815-7.434-0.004v18.511h19.43v-7.078l4 3.811v-19.056h-20.001zM37.541 18.798l-11.355-10.818h11.355v10.818zM34.016 23.616h-12.654v-12.45h0.894v11.607h11.76v0.843zM23.885 29.752l-0.472-0.97h-0.389l0.684 1.284v0.748h0.353v-0.748l0.684-1.284h-0.388l-0.472 0.97zM25.623 28.783h0.084l0.767 2.031h-0.368l-0.164-0.476h-0.786l-0.164 0.476h-0.367l0.765-2.031h0.234zM25.251 30.061h0.595l-0.298-0.862-0.297 0.862zM27.706 29.724c-0.006-0.007-0.020-0.026-0.035-0.044l-0.009-0.013c-0.052-0.069-0.093-0.135-0.121-0.2-0.027-0.059-0.043-0.128-0.043-0.201v-0c0-0.106 0.022-0.197 0.066-0.273s0.106-0.135 0.186-0.176c0.080-0.042 0.173-0.063 0.28-0.063 0.103 0 0.192 0.021 0.266 0.063 0.075 0.041 0.133 0.095 0.173 0.163 0.039 0.063 0.061 0.139 0.061 0.22 0 0.001 0 0.002 0 0.004v-0c0 0.064-0.012 0.123-0.035 0.176-0.025 0.056-0.057 0.104-0.097 0.145l0-0c-0.043 0.045-0.089 0.086-0.139 0.122l-0.003 0.002-0.141 0.103 0.402 0.475c0.011-0.022 0.024-0.049 0.034-0.077l0.002-0.006c0.034-0.089 0.052-0.188 0.052-0.297h0.29c0 0.099-0.010 0.192-0.029 0.28-0.019 0.093-0.051 0.175-0.093 0.25l0.002-0.004c-0.019 0.034-0.038 0.064-0.059 0.091l0.001-0.002 0.298 0.351h-0.389l-0.118-0.139c-0.060 0.046-0.129 0.084-0.203 0.112l-0.005 0.002c-0.099 0.035-0.204 0.053-0.315 0.053-0.135 0-0.252-0.025-0.35-0.074s-0.175-0.117-0.229-0.204c-0.053-0.087-0.080-0.186-0.080-0.297 0-0.083 0.017-0.155 0.052-0.218s0.081-0.122 0.141-0.176c0.056-0.051 0.118-0.1 0.182-0.145l0.006-0.004zM27.873 29.928l-0.042 0.031c-0.049 0.040-0.086 0.079-0.11 0.116s-0.039 0.070-0.046 0.1c-0.007 0.024-0.011 0.052-0.011 0.081v0c0 0.059 0.013 0.113 0.038 0.162 0.027 0.049 0.065 0.088 0.112 0.115l0.001 0.001c0.050 0.028 0.111 0.042 0.183 0.042 0.082-0 0.159-0.019 0.228-0.053l-0.003 0.001c0.036-0.018 0.071-0.039 0.103-0.064l-0.452-0.532zM27.953 29.557l0.125-0.084c0.059-0.039 0.1-0.077 0.126-0.114s0.038-0.086 0.038-0.142c0-0.048-0.019-0.093-0.056-0.134s-0.090-0.061-0.158-0.061c-0.047 0-0.087 0.011-0.12 0.034-0.032 0.021-0.058 0.051-0.073 0.085l-0.001 0.001c-0.016 0.035-0.024 0.075-0.024 0.119 0 0.042 0.011 0.085 0.032 0.13s0.051 0.090 0.088 0.138c0.008 0.010 0.015 0.020 0.023 0.029zM31.507 30.153h-0.349c-0.010 0.088-0.032 0.163-0.064 0.225-0.032 0.060-0.079 0.106-0.141 0.138s-0.142 0.047-0.241 0.047c-0.082 0-0.152-0.016-0.211-0.049s-0.107-0.079-0.145-0.138c-0.037-0.059-0.065-0.131-0.084-0.213s-0.027-0.177-0.027-0.279v-0.172c0-0.108 0.010-0.204 0.029-0.287s0.051-0.156 0.091-0.213c0.040-0.058 0.090-0.101 0.149-0.131s0.129-0.045 0.209-0.045c0.098 0 0.177 0.017 0.237 0.050 0.060 0.032 0.107 0.081 0.136 0.14l0.001 0.002c0.032 0.062 0.052 0.137 0.061 0.225h0.349c-0.014-0.136-0.052-0.256-0.114-0.361s-0.148-0.187-0.259-0.247c-0.112-0.060-0.248-0.089-0.41-0.089-0.127 0-0.242 0.022-0.345 0.067-0.103 0.046-0.191 0.112-0.26 0.193l-0.001 0.001c-0.073 0.084-0.128 0.185-0.167 0.303s-0.057 0.25-0.057 0.396v0.169c0 0.146 0.019 0.278 0.056 0.396s0.093 0.219 0.165 0.303c0.072 0.083 0.158 0.147 0.258 0.193s0.213 0.067 0.339 0.067c0.164 0 0.303-0.030 0.417-0.089s0.203-0.141 0.266-0.244c0.063-0.104 0.1-0.223 0.112-0.356zM33.445 29.854v-0.112c0-0.153-0.020-0.291-0.061-0.412s-0.097-0.226-0.172-0.311c-0.072-0.084-0.161-0.15-0.262-0.195l-0.005-0.002c-0.103-0.046-0.218-0.068-0.343-0.068s-0.239 0.023-0.342 0.068c-0.105 0.047-0.194 0.113-0.266 0.196l-0.001 0.001c-0.074 0.086-0.132 0.189-0.173 0.311s-0.061 0.258-0.061 0.412v0.112c0 0.154 0.020 0.291 0.061 0.413s0.1 0.226 0.176 0.311c0.075 0.086 0.164 0.151 0.266 0.197s0.217 0.067 0.342 0.067c0.126 0 0.24-0.022 0.343-0.067 0.105-0.047 0.194-0.113 0.264-0.196l0.001-0.001c0.074-0.086 0.132-0.189 0.172-0.311s0.060-0.259 0.060-0.413zM33.095 29.74v0.114c0 0.113-0.011 0.214-0.033 0.301s-0.053 0.161-0.095 0.222c-0.042 0.059-0.093 0.105-0.153 0.135s-0.13 0.045-0.208 0.045c-0.077 0-0.146-0.015-0.206-0.045s-0.113-0.076-0.156-0.135c-0.043-0.060-0.075-0.134-0.098-0.222s-0.033-0.188-0.033-0.301v-0.114c0-0.113 0.011-0.213 0.033-0.3s0.054-0.16 0.096-0.219c0.043-0.059 0.094-0.104 0.155-0.134s0.129-0.046 0.206-0.046 0.147 0.015 0.208 0.046c0.061 0.030 0.113 0.074 0.155 0.134s0.075 0.132 0.096 0.219c0.022 0.087 0.033 0.187 0.033 0.3z"></path>
</symbol>
<symbol id="icon-Logo-2" viewBox="0 0 59 32">
<path d="M28.638 3.392h-0.078c-0.12-0.007-0.24-0.010-0.36-0.013h-0.26c-0.227 0-0.458 0.006-0.688 0.017-0.008-0.001-0.017-0.001-0.026-0.001s-0.018 0-0.027 0.001l0.001-0c-2.206 0.129-4.255 0.68-6.106 1.575l0.096-0.042-0.247 0.119v12.653l0.578-0.196c0.507-0.174 1.048-0.331 1.608-0.477 1.382-0.37 2.973-0.593 4.613-0.615l0.013-0v1.662c-0.219 0.002-0.432 0.008-0.643 0.019l0.034-0.001h-0.048c-1.299 0.073-2.516 0.268-3.688 0.575l0.129-0.029c-1.61 0.409-3.022 0.975-4.333 1.699l0.093-0.047v-16.228c1.281-0.761 2.762-1.382 4.331-1.784l0.118-0.026c1.257-0.338 2.7-0.535 4.189-0.541h0.248c0.292 0.007 0.577 0.020 0.844 0.041 0.77 0.055 1.483 0.173 2.173 0.351l-0.084-0.018v1.636c-0.583-0.143-1.275-0.251-1.982-0.303l-0.042-0.002-0.041-0.003c-0.141-0.012-0.282-0.024-0.414-0.024zM31.518 5.065c0.363 0.028 0.739 0.041 1.119 0.041 1.569-0.006 3.087-0.212 4.533-0.593l-0.125 0.028c1.61-0.411 3.021-0.977 4.332-1.701l-0.094 0.047v15.939c-1.281 0.761-2.763 1.381-4.332 1.784l-0.118 0.026c-1.256 0.337-2.7 0.533-4.189 0.539h-0.004c-0.031 0-0.067 0-0.103 0-1.093 0-2.154-0.137-3.166-0.394l0.089 0.019v-16.042c0.246 0.057 0.499 0.109 0.756 0.153 0.422 0.071 0.867 0.123 1.301 0.155zM39.63 5.189l-0.578 0.195c-0.349 0.128-0.886 0.293-1.429 0.44l-0.178 0.041c-1.44 0.385-3.094 0.61-4.8 0.616h-0.004c-0.377 0-0.724-0.010-1.060-0.032l-0.461-0.031v13.016l0.396 0.035c0.367 0.032 0.746 0.048 1.128 0.048 1.347-0.006 2.65-0.184 3.891-0.514l-0.107 0.024c1.134-0.288 2.118-0.651 3.051-1.104l-0.094 0.041 0.247-0.119v-12.657z"></path>
<path d="M20.423 25.838c-0.081-0.084-0.179-0.151-0.288-0.197l-0.006-0.002c-0.094-0.039-0.204-0.062-0.318-0.062-0.011 0-0.022 0-0.032 0.001l0.002-0c-0.004-0-0.008-0-0.013-0-0.129 0-0.253 0.026-0.365 0.072l0.006-0.002c-0.113 0.046-0.209 0.11-0.289 0.19v0c-0.079 0.081-0.143 0.177-0.185 0.285l-0.002 0.006c-0.042 0.103-0.067 0.223-0.067 0.348 0 0.004 0 0.008 0 0.011v-0.001 2.168c-0.005 0.153 0.024 0.305 0.085 0.445 0.053 0.114 0.127 0.211 0.216 0.29l0.001 0.001c0.087 0.073 0.188 0.126 0.298 0.154 0.097 0.028 0.208 0.045 0.324 0.045h0c0.002 0 0.005 0 0.008 0 0.124 0 0.242-0.028 0.347-0.078l-0.005 0.002c0.113-0.050 0.209-0.118 0.289-0.2l0-0c0.078-0.082 0.142-0.178 0.187-0.284l0.002-0.006c0.044-0.101 0.069-0.218 0.069-0.342 0-0.001 0-0.003 0-0.004v0-0.243h-0.567v0.193c0 0.004 0 0.008 0 0.013 0 0.065-0.012 0.127-0.035 0.184l0.001-0.003c-0.019 0.048-0.047 0.088-0.082 0.122l-0 0c-0.033 0.027-0.073 0.049-0.116 0.062l-0.002 0.001c-0.035 0.012-0.076 0.020-0.118 0.020h-0c-0.010 0.001-0.022 0.002-0.033 0.002-0.042 0-0.081-0.009-0.117-0.025l0.002 0.001c-0.048-0.021-0.087-0.053-0.117-0.093l-0.001-0.001c-0.047-0.076-0.076-0.169-0.076-0.268 0-0.008 0-0.016 0.001-0.024l-0 0.001v-2.021c-0-0.006-0-0.014-0-0.022 0-0.11 0.026-0.214 0.072-0.306l-0.002 0.004c0.030-0.046 0.070-0.082 0.118-0.105l0.002-0.001c0.036-0.017 0.078-0.027 0.123-0.027 0.012 0 0.024 0.001 0.036 0.002l-0.001-0c0.003-0 0.007-0 0.011-0 0.099 0 0.187 0.048 0.242 0.121l0.001 0.001c0.059 0.076 0.094 0.174 0.094 0.279 0 0.004-0 0.008-0 0.012v-0.001 0.187h0.561v-0.221c0-0.003 0-0.006 0-0.009 0-0.133-0.026-0.261-0.072-0.377l0.002 0.007c-0.044-0.119-0.109-0.22-0.19-0.306l0 0zM23.79 25.814c-0.173-0.147-0.398-0.237-0.644-0.238h-0c-0.122 0.001-0.238 0.023-0.345 0.063l0.007-0.002c-0.116 0.042-0.215 0.102-0.3 0.178l0.001-0.001c-0.092 0.083-0.166 0.184-0.218 0.298l-0.002 0.006c-0.052 0.118-0.083 0.256-0.083 0.401 0 0.007 0 0.014 0 0.020l-0-0.001v2.080c-0.004 0.146 0.024 0.292 0.082 0.426 0.051 0.112 0.126 0.211 0.22 0.291 0.087 0.080 0.188 0.143 0.299 0.183 0.108 0.040 0.223 0.061 0.338 0.061 0.122-0 0.238-0.023 0.345-0.063l-0.007 0.002c0.118-0.044 0.22-0.106 0.307-0.184l-0.001 0.001c0.089-0.080 0.161-0.177 0.212-0.285l0.002-0.005c0.052-0.118 0.083-0.255 0.083-0.399 0-0.009-0-0.019-0-0.028l0 0.001v-2.080c0-0.006 0-0.013 0-0.020 0-0.145-0.030-0.282-0.085-0.407l0.003 0.006c-0.053-0.119-0.125-0.22-0.214-0.303l-0-0zM23.525 28.617c0.001 0.010 0.001 0.021 0.001 0.032 0 0.105-0.044 0.201-0.114 0.269l-0 0c-0.072 0.060-0.165 0.097-0.267 0.097v0c-0.102-0-0.195-0.037-0.267-0.098l0.001 0c-0.070-0.068-0.114-0.163-0.114-0.269 0-0.011 0-0.023 0.002-0.034l-0 0.001v-2.080c-0.001-0.010-0.001-0.021-0.001-0.032 0-0.105 0.044-0.201 0.114-0.268l0-0c0.072-0.060 0.165-0.097 0.267-0.097v0c0.102 0 0.195 0.037 0.267 0.098l-0.001-0c0.070 0.068 0.114 0.163 0.114 0.268 0 0.011-0 0.023-0.002 0.034l0-0.001v2.080zM28.212 29.546v-3.937h-0.545l-0.716 2.084h-0.010l-0.721-2.084h-0.539v3.937h0.562v-2.395h0.010l0.551 1.693h0.28l0.555-1.693h0.010v2.395h0.562zM31.407 25.885c-0.085-0.095-0.192-0.169-0.313-0.213l-0.005-0.002c-0.115-0.039-0.248-0.061-0.386-0.061-0.008 0-0.015 0-0.023 0l0.001-0h-0.836v3.937h0.561v-1.537h0.289c0.175 0.008 0.349-0.029 0.506-0.108 0.129-0.072 0.233-0.174 0.306-0.297l0.002-0.004c0.062-0.098 0.107-0.214 0.128-0.337l0.001-0.006c0.019-0.124 0.031-0.267 0.031-0.413 0-0.012-0-0.025-0-0.037l0 0.002c0.001-0.019 0.001-0.042 0.001-0.065 0-0.176-0.020-0.348-0.059-0.512l0.003 0.015c-0.040-0.142-0.111-0.264-0.207-0.362l0 0zM31.118 27.085c-0.003 0.075-0.022 0.145-0.053 0.208l0.001-0.003c-0.032 0.061-0.082 0.108-0.143 0.137l-0.002 0.001c-0.069 0.032-0.15 0.050-0.235 0.050-0.010 0-0.021-0-0.031-0.001l0.001 0h-0.256v-1.338h0.289c0.008-0 0.017-0.001 0.026-0.001 0.082 0 0.16 0.018 0.23 0.051l-0.003-0.001c0.058 0.034 0.103 0.084 0.131 0.143l0.001 0.002c0.031 0.069 0.047 0.144 0.049 0.219v0.262c0 0.092 0.006 0.186 0 0.27h-0.006zM34.064 25.609h-0.46l-0.867 3.937h0.561l0.165-0.846h0.765l0.165 0.846h0.561l-0.889-3.937zM33.546 28.164l0.276-1.427h0.010l0.275 1.427h-0.561zM37.688 27.981h-0.010l-0.847-2.372h-0.539v3.937h0.561v-2.367h0.012l0.857 2.367h0.528v-3.937h-0.561v2.372zM41.116 25.609l-0.451 1.565h-0.012l-0.451-1.565h-0.594l0.77 2.273v1.664h0.561v-1.664l0.77-2.273h-0.594zM18.858 30.657h0.27v0.759h0.184v-0.759h0.269v-0.155h-0.723v0.155zM21.131 30.502l-0.354 0.914h0.195l0.075-0.208h0.364l0.078 0.208h0.2l-0.363-0.914h-0.195zM21.102 31.054l0.124-0.339 0.124 0.339h-0.249zM23.378 31.079h0.211v0.118c-0.059 0.048-0.134 0.076-0.217 0.077h-0c-0.004 0-0.008 0-0.013 0-0.073 0-0.138-0.034-0.181-0.087l-0-0c-0.043-0.061-0.068-0.137-0.068-0.218 0-0.007 0-0.014 0.001-0.021l-0 0.001c0-0.203 0.088-0.305 0.263-0.305 0.006-0.001 0.012-0.001 0.019-0.001 0.042 0 0.080 0.013 0.112 0.036l-0.001-0c0.037 0.026 0.065 0.065 0.076 0.11l0 0.001 0.181-0.035c-0.039-0.179-0.168-0.269-0.387-0.269-0.004-0-0.008-0-0.012-0-0.118 0-0.226 0.045-0.308 0.118l0-0c-0.082 0.081-0.133 0.194-0.133 0.318 0 0.012 0 0.023 0.001 0.035l-0-0.002c-0 0.006-0 0.014-0 0.022 0 0.123 0.044 0.235 0.118 0.322l-0.001-0.001c0.080 0.083 0.193 0.135 0.318 0.135 0.010 0 0.021-0 0.031-0.001l-0.001 0c0.005 0 0.010 0 0.015 0 0.144 0 0.275-0.055 0.373-0.146l-0 0v-0.36h-0.396v0.154zM25.672 30.502h-0.185v0.914h0.64v-0.155h-0.455v-0.759zM27.612 30.502h-0.185v0.914h0.185v-0.914zM29.509 31.112l-0.374-0.61h-0.179v0.914h0.172v-0.597l0.367 0.597h0.184v-0.914h-0.169v0.61zM31.223 31.013h0.455v-0.155h-0.455v-0.201h0.49v-0.155h-0.675v0.914h0.694v-0.155h-0.509v-0.247zM35.381 30.862h-0.36v-0.36h-0.184v0.914h0.184v-0.4h0.36v0.4h0.184v-0.914h-0.184v0.36zM37.106 31.013h0.457v-0.155h-0.457v-0.201h0.492v-0.155h-0.675v0.914h0.692v-0.155h-0.509v-0.247zM39.445 31.013c0.159-0.025 0.24-0.109 0.24-0.254 0.001-0.008 0.002-0.017 0.002-0.026 0-0.073-0.036-0.138-0.091-0.177l-0.001-0c-0.068-0.035-0.147-0.055-0.232-0.055-0.013 0-0.025 0-0.037 0.001l0.002-0h-0.387v0.914h0.184v-0.382h0.036c0.005-0 0.010-0 0.015-0 0.036 0 0.070 0.008 0.101 0.021l-0.002-0.001c0.027 0.017 0.049 0.039 0.065 0.066l0.001 0.001 0.2 0.291h0.22l-0.111-0.179c-0.050-0.089-0.118-0.163-0.2-0.218l-0.002-0.001zM39.26 30.887h-0.136v-0.23h0.145c0.012-0.001 0.025-0.002 0.039-0.002 0.053 0 0.104 0.009 0.151 0.024l-0.003-0.001c0.025 0.022 0.040 0.054 0.040 0.090 0 0.039-0.019 0.075-0.049 0.096l-0 0c-0.046 0.015-0.098 0.023-0.153 0.023-0.012 0-0.024-0-0.035-0.001l0.002 0zM41.208 31.013h0.455v-0.155h-0.455v-0.201h0.492v-0.155h-0.677v0.914h0.694v-0.155h-0.509v-0.247z"></path>
</symbol>
<symbol id="icon-Logo-3" viewBox="0 0 59 32">
<path  d="M21.036 28.131c0.010 0 0.019 0.002 0.027 0.005l-0.001-0c0.009 0.003 0.016 0.008 0.022 0.014l-0-0 0.126 0.119c-0.098 0.096-0.219 0.173-0.355 0.225-0.14 0.051-0.302 0.081-0.471 0.081-0.012 0-0.023-0-0.034-0l0.002 0c-0.008 0-0.017 0-0.026 0-0.16 0-0.314-0.028-0.457-0.079l0.009 0.003c-0.135-0.048-0.257-0.121-0.357-0.213-0.102-0.095-0.18-0.207-0.23-0.329s-0.080-0.262-0.080-0.409c0-0.005 0-0.009 0-0.014v0.001c-0-0.004-0-0.009-0-0.014 0-0.148 0.032-0.289 0.089-0.416l-0.003 0.006c0.055-0.122 0.138-0.234 0.244-0.329 0.108-0.093 0.237-0.166 0.379-0.214 0.155-0.051 0.321-0.077 0.487-0.076 0.009-0 0.019-0 0.029-0 0.152 0 0.297 0.025 0.433 0.072l-0.009-0.003c0.125 0.046 0.24 0.111 0.339 0.19l-0.106 0.127c-0.008 0.009-0.016 0.017-0.026 0.023l-0 0c-0.010 0.006-0.023 0.010-0.036 0.010-0.002 0-0.004-0-0.006-0l0 0c-0.017-0.001-0.033-0.006-0.046-0.014l0 0-0.057-0.034-0.079-0.043c-0.028-0.014-0.063-0.028-0.099-0.040l-0.006-0.002c-0.039-0.013-0.087-0.024-0.137-0.033l-0.007-0.001c-0.052-0.009-0.113-0.014-0.174-0.014-0.005 0-0.009 0-0.014 0h0.001c-0.004-0-0.008-0-0.012-0-0.121 0-0.237 0.021-0.345 0.059l0.007-0.002c-0.104 0.036-0.197 0.090-0.274 0.159-0.079 0.073-0.139 0.16-0.178 0.253-0.041 0.096-0.065 0.207-0.065 0.323 0 0.004 0 0.008 0 0.012v-0.001c-0.002 0.116 0.020 0.231 0.065 0.34 0.038 0.093 0.098 0.179 0.175 0.252 0.072 0.068 0.162 0.122 0.262 0.156 0.103 0.036 0.213 0.055 0.325 0.054 0.005 0 0.011 0 0.018 0 0.062 0 0.122-0.004 0.182-0.012l-0.007 0.001c0.104-0.011 0.204-0.042 0.292-0.090 0.047-0.027 0.088-0.055 0.127-0.085l-0.002 0.002c0.016-0.013 0.037-0.021 0.060-0.022h0zM24.68 27.535c0 0.004 0 0.008 0 0.012 0 0.147-0.031 0.287-0.088 0.413l0.003-0.006c-0.051 0.122-0.132 0.233-0.238 0.326s-0.232 0.166-0.373 0.214c-0.143 0.048-0.308 0.075-0.48 0.075s-0.336-0.028-0.491-0.079l0.011 0.003c-0.14-0.049-0.266-0.122-0.371-0.214-0.105-0.095-0.187-0.206-0.24-0.329-0.114-0.271-0.114-0.568 0-0.84 0.054-0.122 0.135-0.235 0.24-0.33 0.106-0.090 0.232-0.16 0.371-0.206 0.143-0.049 0.308-0.077 0.48-0.077s0.336 0.028 0.49 0.080l-0.011-0.003c0.14 0.049 0.267 0.122 0.372 0.214 0.104 0.094 0.185 0.204 0.238 0.325 0.058 0.135 0.087 0.278 0.085 0.422zM24.348 27.535c0-0.005 0-0.011 0-0.018 0-0.115-0.022-0.225-0.062-0.325l0.002 0.006c-0.035-0.093-0.093-0.179-0.169-0.252-0.074-0.069-0.165-0.124-0.267-0.159-0.104-0.035-0.224-0.055-0.349-0.055s-0.244 0.020-0.357 0.058l0.008-0.002c-0.102 0.035-0.193 0.090-0.267 0.159-0.077 0.073-0.135 0.159-0.17 0.252-0.038 0.1-0.060 0.216-0.060 0.337s0.022 0.237 0.062 0.344l-0.002-0.007c0.036 0.093 0.094 0.179 0.17 0.252 0.074 0.069 0.165 0.123 0.267 0.158 0.104 0.034 0.224 0.054 0.349 0.054s0.244-0.020 0.357-0.056l-0.008 0.002c0.102-0.035 0.193-0.089 0.267-0.158 0.076-0.073 0.133-0.159 0.169-0.252 0.042-0.109 0.063-0.223 0.060-0.337zM27.166 27.888l0.033 0.076c0.013-0.027 0.024-0.051 0.036-0.076 0.014-0.029 0.028-0.054 0.043-0.077l-0.002 0.003 0.806-1.252c0.016-0.022 0.030-0.035 0.046-0.039s0.036-0.007 0.055-0.007c0.004 0 0.008 0 0.011 0l-0.001-0h0.238v2.036h-0.282v-1.561c-0.001-0.010-0.001-0.023-0.001-0.035s0-0.025 0.001-0.037l-0 0.002-0.811 1.27c-0.011 0.020-0.027 0.036-0.047 0.046l-0.001 0c-0.020 0.011-0.043 0.017-0.068 0.017-0 0-0.001 0-0.001 0h-0.046c-0.001 0-0.001 0-0.002 0-0.025 0-0.048-0.006-0.068-0.017l0.001 0c-0.020-0.011-0.036-0.027-0.047-0.046l-0-0.001-0.834-1.278v1.635h-0.273v-2.032h0.238c0.003-0 0.007-0 0.011-0 0.020 0 0.039 0.003 0.057 0.007l-0.002-0c0.019 0.008 0.034 0.021 0.044 0.039l0 0 0.823 1.253c0.015 0.021 0.029 0.045 0.040 0.070l0.001 0.003zM30.199 27.787v0.763h-0.316v-2.034h0.704c0.008-0 0.017-0 0.026-0 0.13 0 0.257 0.016 0.377 0.047l-0.011-0.002c0.102 0.025 0.197 0.068 0.278 0.127 0.070 0.055 0.124 0.123 0.158 0.199 0.037 0.083 0.055 0.171 0.054 0.26 0 0.002 0 0.005 0 0.008 0 0.092-0.022 0.179-0.060 0.256l0.002-0.003c-0.038 0.078-0.096 0.148-0.17 0.203-0.081 0.061-0.176 0.107-0.279 0.135-0.107 0.030-0.229 0.047-0.355 0.047-0.009 0-0.017-0-0.026-0l-0.38-0.005zM30.199 27.568h0.382c0.003 0 0.007 0 0.010 0 0.083 0 0.164-0.011 0.24-0.033l-0.006 0.002c0.068-0.019 0.126-0.049 0.178-0.089l-0.001 0.001c0.046-0.035 0.082-0.081 0.106-0.133l0.001-0.002c0.024-0.049 0.038-0.106 0.038-0.166 0-0.002 0-0.003-0-0.005v0c0-0.006 0.001-0.014 0.001-0.021 0-0.052-0.012-0.102-0.033-0.146l0.001 0.002c-0.027-0.055-0.064-0.102-0.11-0.138l-0.001-0.001c-0.121-0.080-0.272-0.119-0.424-0.109h-0.382v0.838zM34.439 28.552h-0.249c-0.001 0-0.003 0-0.005 0-0.024 0-0.047-0.007-0.065-0.019l0 0c-0.017-0.012-0.031-0.028-0.041-0.046l-0-0.001-0.215-0.492h-1.077l-0.222 0.492c-0.009 0.019-0.022 0.034-0.039 0.046l-0 0c-0.019 0.013-0.042 0.020-0.067 0.020-0.001 0-0.003-0-0.004-0h-0.249l0.946-2.037h0.328l0.959 2.037zM32.878 27.796h0.89l-0.375-0.829c-0.025-0.053-0.049-0.116-0.069-0.182l-0.002-0.009-0.036 0.106c-0.012 0.036-0.024 0.064-0.037 0.092l0.002-0.006-0.372 0.828zM35.802 26.525c0.019 0.009 0.035 0.021 0.047 0.036l0 0 1.38 1.535v-1.581h0.282v2.037h-0.158c-0.001 0-0.003 0-0.004 0-0.022 0-0.043-0.004-0.061-0.013l0.001 0c-0.020-0.010-0.036-0.022-0.050-0.038l-0-0-1.379-1.534c0.001 0.010 0.001 0.023 0.001 0.035s-0 0.025-0.001 0.037l0-0.002v1.514h-0.282v-2.037h0.167c0.001-0 0.002-0 0.004-0 0.019 0 0.037 0.003 0.054 0.010l-0.001-0zM39.837 27.742v0.809h-0.316v-0.809l-0.872-1.227h0.282c0.002-0 0.004-0 0.006-0 0.023 0 0.044 0.007 0.062 0.018l-0-0c0.017 0.013 0.031 0.028 0.042 0.045l0 0.001 0.546 0.791c0.017 0.026 0.036 0.056 0.054 0.088l0.003 0.006c0.016 0.030 0.028 0.058 0.039 0.086l0.041-0.088c0.017-0.036 0.035-0.066 0.055-0.095l-0.002 0.002 0.538-0.797c0.012-0.016 0.025-0.031 0.041-0.043l0-0c0.017-0.013 0.039-0.020 0.063-0.020 0.002 0 0.004 0 0.005 0h0.285l-0.874 1.232zM27.009 23.098c0.137 0.015 0.276 0.027 0.416 0.038 2.128-0.814 3.929-2.145 5.177-3.828s1.887-3.643 1.838-5.635l-2.346-2.004c0.477 2.121 0.254 4.313-0.644 6.331s-2.436 3.784-4.441 5.098z"></path>
<path  d="M26.172 23.005l0.063 0.011c2.143-1.31 3.777-3.138 4.69-5.25s1.064-4.409 0.433-6.594l-3.341-2.855c1.351 2.346 1.895 4.972 1.569 7.572s-1.511 5.068-3.414 7.115zM37.503 16.026c-0.568 2.189-1.946 4.162-3.931 5.628-0.58 0.43-1.205 0.814-1.868 1.146 1.616-0.406 3.102-1.123 4.342-2.097s2.202-2.178 2.812-3.52l-1.355-1.156z"></path>
<path  d="M36.971 15.704l-1.929-1.648c-0.037 1.879-0.662 3.716-1.811 5.319s-2.779 2.914-4.721 3.796h0.009c0.456-0 0.907-0.024 1.351-0.071l-0.056 0.005c1.815-0.633 3.419-1.64 4.668-2.931s2.104-2.827 2.489-4.469zM26.451 7.113l-2.302-1.969c-2.057 0.679-3.827 1.873-5.077 3.426s-1.922 3.392-1.929 5.276c0.008 2.082 0.828 4.103 2.331 5.742s3.603 2.803 5.968 3.308c2.111-2.197 3.347-4.913 3.528-7.751s-0.701-5.652-2.52-8.033zM42.289 15.401c-0.008-2.471-1.161-4.838-3.206-6.585s-4.816-2.732-7.707-2.739c-1.336-0.001-2.661 0.21-3.907 0.621l14.091 12.040c0.483-1.064 0.73-2.196 0.729-3.337z"></path>
</symbol>
<symbol id="icon-Logo-4" viewBox="0 0 59 32">
<path  d="M13.76 12.298h-0.002c-1.363 0-2.469 0.996-2.469 2.226v0.002c0 1.229 1.105 2.226 2.469 2.226h0.002c1.363 0 2.469-0.996 2.469-2.226v-0.002c0-1.229-1.105-2.226-2.469-2.226zM31.98 11.586c-0.004-1.707-0.758-3.344-2.096-4.551s-3.154-1.887-5.047-1.891c-1.894 0.003-3.71 0.683-5.049 1.89s-2.094 2.844-2.098 4.552v9.415s14.289-1.435 14.29-9.413v-0.001zM6.286 24.091c0.003 1.188 0.528 2.326 1.46 3.166s2.194 1.314 3.511 1.317c1.317-0.003 2.579-0.477 3.511-1.317s1.456-1.978 1.46-3.165v-6.551s-9.942 0.999-9.942 6.549zM11.257 25.265c-0.258 0-0.509-0.069-0.723-0.198s-0.381-0.312-0.479-0.527-0.124-0.451-0.074-0.678c0.050-0.228 0.174-0.437 0.356-0.601s0.414-0.276 0.667-0.321c0.076-0.014 0.164-0.023 0.254-0.023 0.179 0 0.35 0.033 0.508 0.093l-0.010-0.003c0.238 0.089 0.441 0.239 0.584 0.432s0.219 0.42 0.219 0.652c0 0.001 0 0.002 0 0.003 0 0.162-0.036 0.316-0.1 0.454l0.003-0.007c-0.065 0.143-0.161 0.273-0.282 0.382s-0.265 0.196-0.423 0.256c-0.148 0.057-0.319 0.090-0.498 0.090-0 0-0.001 0-0.001 0h0v-0.004zM20.349 23.154v2.438h-0.502v-2.438h0.502zM21.32 24.195v0.392h-1.108v-0.392h1.108zM21.438 23.154v0.393h-1.226v-0.393h1.226zM23.731 24.316v0.116c0 0.185-0.025 0.352-0.075 0.499s-0.121 0.273-0.213 0.377c-0.089 0.1-0.199 0.18-0.322 0.234l-0.006 0.002c-0.126 0.055-0.266 0.082-0.42 0.082-0.153 0-0.293-0.027-0.42-0.082-0.129-0.057-0.239-0.136-0.327-0.235l-0.001-0.001c-0.093-0.104-0.165-0.229-0.216-0.377-0.050-0.147-0.075-0.314-0.075-0.499v-0.116c0-0.186 0.025-0.353 0.075-0.499 0.050-0.147 0.121-0.273 0.213-0.377 0.089-0.1 0.199-0.181 0.322-0.235l0.006-0.002c0.127-0.055 0.267-0.082 0.42-0.082 0.154 0 0.294 0.027 0.42 0.082 0.127 0.055 0.237 0.134 0.328 0.238 0.093 0.104 0.164 0.229 0.214 0.377 0.051 0.146 0.077 0.312 0.077 0.499zM23.224 24.432v-0.119c0-0.13-0.012-0.243-0.035-0.342s-0.058-0.181-0.104-0.248-0.102-0.117-0.167-0.151c-0.066-0.035-0.141-0.052-0.226-0.052s-0.16 0.017-0.226 0.052c-0.065 0.034-0.12 0.084-0.166 0.151-0.045 0.067-0.079 0.15-0.102 0.248s-0.035 0.212-0.035 0.342v0.119c0 0.128 0.012 0.242 0.035 0.341 0.023 0.098 0.058 0.181 0.104 0.249 0.046 0.067 0.102 0.118 0.167 0.152s0.141 0.052 0.226 0.052c0.085 0 0.16-0.017 0.226-0.052s0.121-0.085 0.166-0.152c0.045-0.068 0.079-0.151 0.102-0.249 0.023-0.099 0.035-0.213 0.035-0.341zM25.362 24.954c0-0.044-0.007-0.083-0.020-0.117-0.012-0.036-0.036-0.068-0.070-0.097-0.035-0.030-0.083-0.060-0.146-0.089s-0.143-0.059-0.243-0.090c-0.128-0.041-0.233-0.082-0.334-0.128l0.019 0.008c-0.098-0.045-0.185-0.097-0.261-0.156-0.075-0.060-0.134-0.13-0.177-0.209-0.042-0.079-0.064-0.171-0.064-0.276 0-0.102 0.022-0.194 0.067-0.276 0.045-0.084 0.107-0.155 0.188-0.214 0.080-0.060 0.175-0.107 0.285-0.139 0.11-0.032 0.232-0.049 0.363-0.049 0.18 0 0.337 0.032 0.47 0.097s0.238 0.154 0.311 0.266c0.075 0.113 0.112 0.242 0.112 0.387h-0.499c0-0.071-0.015-0.134-0.045-0.188-0.029-0.055-0.074-0.098-0.134-0.129-0.059-0.031-0.134-0.047-0.224-0.047-0.087 0-0.16 0.013-0.218 0.040-0.058 0.026-0.102 0.061-0.131 0.105-0.029 0.044-0.044 0.093-0.044 0.147 0 0.041 0.010 0.079 0.030 0.112 0.021 0.034 0.052 0.065 0.094 0.094s0.092 0.056 0.152 0.082c0.060 0.026 0.13 0.051 0.209 0.075 0.133 0.040 0.249 0.085 0.35 0.136 0.102 0.050 0.186 0.107 0.254 0.169s0.119 0.133 0.154 0.213c0.035 0.079 0.052 0.169 0.052 0.27 0 0.106-0.021 0.201-0.062 0.285s-0.101 0.155-0.179 0.213c-0.078 0.058-0.171 0.102-0.28 0.132s-0.229 0.045-0.363 0.045c-0 0-0 0-0 0-0.127 0-0.249-0.017-0.366-0.049l0.010 0.002c-0.117-0.032-0.224-0.081-0.32-0.146-0.094-0.064-0.171-0.147-0.226-0.244l-0.002-0.004c-0.057-0.1-0.085-0.219-0.085-0.357h0.504c0 0.076 0.012 0.14 0.035 0.193s0.056 0.095 0.099 0.127c0.044 0.032 0.095 0.056 0.154 0.070 0.060 0.015 0.126 0.022 0.198 0.022 0.087 0 0.158-0.012 0.214-0.037 0.057-0.025 0.099-0.059 0.126-0.102 0.028-0.044 0.042-0.093 0.042-0.147zM27.296 23.154v2.438h-0.501v-2.438h0.501zM28.046 23.154v0.393h-1.989v-0.393h1.989zM29.968 25.2v0.392h-1.298v-0.392h1.298zM28.834 23.154v2.438h-0.502v-2.438h0.502zM29.799 24.147v0.382h-1.128v-0.382h1.128zM29.966 23.154v0.393h-1.296v-0.393h1.296zM30.261 23.154h0.909c0.186 0 0.347 0.028 0.48 0.084 0.135 0.056 0.239 0.138 0.311 0.248s0.109 0.244 0.109 0.403c0 0.131-0.022 0.243-0.067 0.337s-0.107 0.171-0.184 0.232l-0.001 0.001c-0.079 0.061-0.172 0.111-0.28 0.147l-0.159 0.084h-0.79l-0.003-0.392h0.588c0.088 0 0.161-0.016 0.219-0.047s0.102-0.075 0.131-0.131c0.030-0.056 0.045-0.121 0.045-0.194 0-0.078-0.015-0.146-0.044-0.203s-0.073-0.1-0.132-0.131-0.133-0.045-0.223-0.045h-0.407v2.044h-0.502v-2.438zM31.624 25.592l-0.556-1.087 0.531-0.003 0.563 1.066v0.023h-0.537zM34.261 24.723h-0.621v-0.392h0.621c0.096 0 0.174-0.016 0.234-0.047 0.060-0.032 0.104-0.077 0.132-0.134s0.042-0.121 0.042-0.193c0-0.073-0.014-0.14-0.042-0.203s-0.072-0.113-0.132-0.151-0.138-0.057-0.234-0.057h-0.447v2.044h-0.502v-2.438h0.949c0.191 0 0.354 0.035 0.491 0.104 0.137 0.068 0.242 0.162 0.315 0.283s0.109 0.258 0.109 0.413c0 0.157-0.036 0.294-0.109 0.409s-0.177 0.204-0.315 0.266c-0.136 0.062-0.3 0.094-0.491 0.094zM37.157 25.2v0.392h-1.298v-0.392h1.298zM36.023 23.154v2.438h-0.502v-2.438h0.502zM36.988 24.147v0.382h-1.128v-0.382h1.128zM37.155 23.154v0.393h-1.296v-0.393h1.296zM38.573 23.154v2.438h-0.501v-2.438h0.501zM39.323 23.154v0.393h-1.989v-0.393h1.989zM41.245 25.2v0.392h-1.298v-0.392h1.298zM40.112 23.154v2.438h-0.502v-2.438h0.502zM41.076 24.147v0.382h-1.128v-0.382h1.128zM41.244 23.154v0.393h-1.296v-0.393h1.296zM41.538 23.154h0.909c0.186 0 0.347 0.028 0.481 0.084 0.135 0.056 0.239 0.138 0.311 0.248s0.109 0.244 0.109 0.403c0 0.131-0.022 0.243-0.067 0.337s-0.107 0.171-0.184 0.232l-0.001 0.001c-0.079 0.061-0.172 0.111-0.28 0.147l-0.159 0.084h-0.79l-0.003-0.392h0.588c0.088 0 0.161-0.016 0.219-0.047s0.102-0.075 0.131-0.131c0.030-0.056 0.045-0.121 0.045-0.194 0-0.078-0.014-0.146-0.044-0.203s-0.073-0.1-0.132-0.131c-0.059-0.030-0.133-0.045-0.223-0.045h-0.407v2.044h-0.502v-2.438zM42.901 25.592l-0.556-1.087 0.531-0.003 0.563 1.066v0.023h-0.537zM45.004 24.954c0-0.044-0.007-0.083-0.020-0.117-0.012-0.036-0.036-0.068-0.070-0.097-0.035-0.030-0.083-0.060-0.146-0.089s-0.143-0.059-0.243-0.090c-0.129-0.041-0.233-0.082-0.334-0.128l0.019 0.008c-0.098-0.045-0.185-0.097-0.261-0.156-0.075-0.060-0.134-0.13-0.178-0.209-0.042-0.079-0.064-0.171-0.064-0.276 0-0.102 0.022-0.194 0.067-0.276 0.045-0.084 0.107-0.155 0.188-0.214 0.080-0.060 0.175-0.107 0.285-0.139 0.111-0.032 0.232-0.049 0.363-0.049 0.18 0 0.337 0.032 0.47 0.097s0.238 0.154 0.311 0.266c0.075 0.113 0.112 0.242 0.112 0.387h-0.499c0-0.071-0.015-0.134-0.045-0.188-0.029-0.055-0.074-0.098-0.134-0.129-0.059-0.031-0.134-0.047-0.224-0.047-0.087 0-0.16 0.013-0.218 0.040-0.058 0.026-0.102 0.061-0.131 0.105-0.029 0.044-0.044 0.093-0.044 0.147 0 0.041 0.010 0.079 0.030 0.112 0.021 0.034 0.052 0.065 0.094 0.094s0.092 0.056 0.152 0.082c0.060 0.026 0.13 0.051 0.209 0.075 0.133 0.040 0.249 0.085 0.35 0.136 0.102 0.050 0.186 0.107 0.254 0.169s0.119 0.133 0.154 0.213c0.035 0.079 0.052 0.169 0.052 0.27 0 0.106-0.021 0.201-0.062 0.285s-0.101 0.155-0.179 0.213c-0.078 0.058-0.171 0.102-0.28 0.132s-0.229 0.045-0.363 0.045c-0 0-0 0-0 0-0.127 0-0.249-0.017-0.366-0.049l0.010 0.002c-0.117-0.032-0.224-0.081-0.32-0.146-0.094-0.064-0.171-0.147-0.226-0.244l-0.002-0.004c-0.057-0.1-0.085-0.219-0.085-0.357h0.504c0 0.076 0.012 0.14 0.035 0.193s0.056 0.095 0.099 0.127c0.044 0.032 0.095 0.056 0.154 0.070 0.060 0.015 0.126 0.022 0.198 0.022 0.087 0 0.158-0.012 0.214-0.037 0.057-0.025 0.099-0.059 0.126-0.102 0.028-0.044 0.042-0.093 0.042-0.147z"></path>
</symbol>
<symbol id="icon-Logo-5" viewBox="0 0 59 32">
<path  d="M15.311 25.359c0.14 0.156 0.215 0.352 0.211 0.553 0.001 0.013 0.001 0.027 0.001 0.042 0 0.124-0.028 0.241-0.078 0.345l0.002-0.005c-0.057 0.121-0.143 0.229-0.252 0.316-0.273 0.185-0.61 0.276-0.951 0.255h-1.672v-3.504h1.637c0.323-0.019 0.644 0.063 0.907 0.233 0.106 0.080 0.189 0.18 0.245 0.294s0.080 0.238 0.073 0.361c0.010 0.193-0.058 0.383-0.19 0.536-0.127 0.139-0.303 0.236-0.498 0.274 0.222 0.036 0.422 0.143 0.565 0.3zM13.35 24.83h0.7c0.159 0.011 0.317-0.031 0.445-0.116 0.051-0.041 0.091-0.093 0.118-0.153l0.001-0.003c0.020-0.045 0.032-0.098 0.032-0.153 0-0.012-0.001-0.024-0.002-0.036l0 0.002c0.001-0.009 0.001-0.019 0.001-0.030 0-0.057-0.012-0.11-0.034-0.159l0.001 0.003c-0.028-0.062-0.067-0.114-0.116-0.156l-0.001-0.001c-0.132-0.088-0.295-0.13-0.458-0.118h-0.688v0.919zM14.563 26.174c0.055-0.042 0.098-0.096 0.128-0.158l0.001-0.003c0.024-0.049 0.037-0.107 0.037-0.168 0-0.010-0-0.019-0.001-0.029l0 0.001c0.001-0.007 0.001-0.016 0.001-0.025 0-0.063-0.014-0.122-0.040-0.175l0.001 0.002c-0.031-0.065-0.076-0.119-0.13-0.161l-0.001-0.001c-0.137-0.091-0.305-0.136-0.475-0.127h-0.734v0.964h0.744c0.167 0.009 0.333-0.034 0.47-0.122zM18.658 26.865l-0.911-1.37h-0.342v1.37h-0.784v-3.504h1.483c0.374-0.023 0.744 0.083 1.033 0.298 0.207 0.19 0.332 0.441 0.353 0.707s-0.066 0.53-0.242 0.743c-0.183 0.189-0.433 0.315-0.707 0.356l0.97 1.4h-0.852zM17.404 25.018h0.641c0.445 0 0.667-0.177 0.667-0.531 0.001-0.009 0.001-0.019 0.001-0.029 0-0.066-0.014-0.129-0.038-0.186l0.001 0.003c-0.030-0.071-0.074-0.132-0.127-0.181l-0-0c-0.141-0.105-0.322-0.156-0.504-0.142h-0.648l0.008 1.067zM22.94 26.16h-1.561l-0.276 0.705h-0.822l1.434-3.465h0.888l1.428 3.465h-0.822l-0.27-0.705zM22.731 25.629l-0.571-1.479-0.57 1.479h1.141zM28.301 26.865h-0.778l-1.744-2.383v2.383h-0.776v-3.504h0.776l1.744 2.397v-2.397h0.778v3.504zM32.74 26.027c-0.161 0.265-0.406 0.48-0.704 0.618-0.339 0.154-0.714 0.23-1.093 0.221h-1.384v-3.504h1.384c0.378-0.009 0.754 0.065 1.093 0.216 0.298 0.135 0.543 0.348 0.704 0.611 0.16 0.285 0.243 0.6 0.243 0.919s-0.083 0.634-0.243 0.919zM31.85 25.943c0.222-0.233 0.344-0.53 0.344-0.836s-0.122-0.603-0.344-0.836c-0.268-0.211-0.618-0.318-0.974-0.298h-0.54v2.268h0.54c0.355 0.020 0.705-0.087 0.974-0.298zM23.427 3.868s10.039 3.412 9.826 8.35v8.351s-10.031-3.414-9.822-8.351l-0.004-8.35zM42.197 18.613c1.896-1.175 4.089-1.902 6.378-2.116v-2.614c-2.638 0.915-4.875 2.575-6.378 4.73z"></path>
<path  d="M41.058 19.401c1.552-2.813 4.242-4.984 7.517-6.066v-7.533s-14.297 4.86-13.995 11.892v11.89s0.637-0.217 1.639-0.625c0-0.38 0-0.764 0.046-1.149 0.296-3.264 2.020-6.289 4.792-8.409z"></path>
<path  d="M39.698 23.818c0.084-0.899 0.261-1.726 0.523-2.513l-0.023 0.079c-1.726 1.831-2.772 4.103-2.989 6.497-0.021 0.226-0.032 0.452-0.038 0.685 0.812-0.351 1.757-0.789 2.75-1.305-0.171-0.73-0.269-1.568-0.269-2.429 0-0.357 0.017-0.71 0.050-1.058l-0.003 0.044zM40.266 23.861c-0.028 0.289-0.044 0.625-0.044 0.964 0 0.762 0.080 1.506 0.233 2.223l-0.012-0.070c3.906-2.104 8.295-5.355 8.126-9.284v-0.342c-2.791 0.281-5.402 1.379-7.432 3.126-0.475 1.082-0.769 2.223-0.871 3.383z"></path>
</symbol>
<symbol id="icon-Logo-6" viewBox="0 0 59 32">
<path  d="M30.59 15.684c-0.254-0.338-0.375-0.737-0.346-1.138v-1.65c0-0.506 0.115-0.89 0.344-1.153s0.624-0.394 1.183-0.393c0.525 0 0.898 0.112 1.119 0.336 0.241 0.286 0.358 0.635 0.331 0.987v0.388h-0.94v-0.393c0-0.015 0.001-0.034 0.001-0.052 0-0.117-0.010-0.233-0.030-0.345l0.002 0.012c-0.014-0.087-0.061-0.168-0.134-0.228-0.097-0.066-0.218-0.097-0.341-0.089-0.129-0.008-0.256 0.025-0.358 0.094-0.082 0.067-0.136 0.156-0.156 0.252-0.024 0.113-0.037 0.242-0.037 0.375 0 0.011 0 0.023 0 0.034l-0-0.002v2.003c-0.015 0.193 0.027 0.387 0.121 0.562 0.047 0.060 0.112 0.107 0.188 0.136 0.055 0.022 0.119 0.035 0.186 0.035 0.020 0 0.040-0.001 0.059-0.003l-0.002 0c0.12 0.009 0.24-0.024 0.333-0.091 0.077-0.066 0.126-0.151 0.14-0.243 0.019-0.108 0.030-0.233 0.030-0.36 0-0.015-0-0.029-0-0.044l0 0.002v-0.406h0.94v0.371c0.026 0.367-0.088 0.732-0.325 1.038-0.216 0.245-0.584 0.368-1.125 0.368s-0.95-0.131-1.181-0.403zM34.503 15.701c-0.237-0.257-0.356-0.631-0.356-1.127v-1.736c0-0.49 0.119-0.861 0.356-1.113s0.634-0.377 1.191-0.376c0.553 0 0.948 0.125 1.185 0.376 0.237 0.252 0.358 0.623 0.358 1.113v1.736c0 0.49-0.121 0.866-0.362 1.125s-0.634 0.388-1.181 0.388-0.951-0.131-1.191-0.386zM36.132 15.284c0.085-0.161 0.124-0.337 0.113-0.514v-2.126c0.011-0.173-0.027-0.346-0.111-0.504-0.048-0.061-0.114-0.109-0.192-0.138-0.054-0.021-0.117-0.034-0.183-0.034-0.023 0-0.045 0.001-0.067 0.004l0.003-0c-0.019-0.002-0.041-0.004-0.063-0.004-0.066 0-0.13 0.012-0.189 0.035l0.004-0.001c-0.078 0.030-0.145 0.077-0.193 0.138-0.086 0.157-0.124 0.33-0.113 0.504v2.136c-0.012 0.177 0.027 0.353 0.113 0.514 0.055 0.054 0.121 0.097 0.194 0.126l0.004 0.001c0.071 0.029 0.154 0.045 0.24 0.045 0 0 0.001 0 0.001 0h-0c0 0 0.001 0 0.001 0 0.087 0 0.169-0.017 0.245-0.047l-0.005 0.002c0.077-0.030 0.143-0.073 0.198-0.127l-0 0v-0.010zM38.367 11.4h1.012l0.761 3.203 0.778-3.203h0.985l0.099 4.623h-0.728l-0.078-3.213-0.751 3.213h-0.584l-0.778-3.225-0.072 3.225h-0.735l0.091-4.623zM43.136 11.4h1.576c0.908 0 1.362 0.438 1.362 1.313 0 0.838-0.478 1.257-1.434 1.256h-0.537v2.055h-0.973l0.006-4.623zM44.483 13.376c0.096 0.011 0.194 0.003 0.286-0.022 0.095-0.026 0.179-0.069 0.25-0.125l-0.002 0.001c0.112-0.156 0.161-0.339 0.14-0.522 0.001-0.015 0.001-0.034 0.001-0.052 0-0.131-0.017-0.258-0.050-0.378l0.002 0.010c-0.015-0.049-0.040-0.092-0.072-0.127l0 0c-0.034-0.038-0.075-0.069-0.121-0.092l-0.002-0.001c-0.113-0.048-0.244-0.075-0.382-0.075-0.018 0-0.036 0.001-0.054 0.001l0.003-0h-0.377v1.382h0.377zM47.477 11.4h1.045l1.072 4.623h-0.907l-0.212-1.066h-0.932l-0.218 1.066h-0.92l1.072-4.623zM48.37 14.421l-0.364-1.941-0.364 1.941h0.728zM50.46 11.4h0.681l1.304 2.637v-2.637h0.807v4.623h-0.648l-1.311-2.753v2.753h-0.835l0.002-4.623zM55.143 14.26l-1.084-2.854h0.913l0.662 1.833 0.621-1.833h0.893l-1.070 2.854v1.763h-0.934v-1.763zM32.093 18.044v0.242h-0.794v1.879h-0.333v-1.879h-0.798v-0.242h1.924zM34.581 20.165h-0.257c-0.002 0-0.005 0-0.007 0-0.024 0-0.047-0.008-0.065-0.021l0 0c-0.019-0.012-0.033-0.028-0.043-0.048l-0-0.001-0.23-0.504h-1.101l-0.23 0.504c-0.007 0.022-0.019 0.042-0.035 0.057l-0 0c-0.019 0.013-0.042 0.020-0.066 0.020-0.002 0-0.004-0-0.006-0h-0.257l0.973-2.12h0.339l0.985 2.112zM32.97 19.378h0.918l-0.389-0.863c-0.025-0.054-0.049-0.121-0.069-0.189l-0.003-0.011c-0.014 0.040-0.025 0.079-0.037 0.113l-0.035 0.089-0.385 0.861zM36.258 19.957c0.061 0.003 0.122 0.003 0.183 0 0.059-0.005 0.112-0.014 0.163-0.027l-0.008 0.002c0.056-0.012 0.103-0.025 0.149-0.041l-0.008 0.003c0.043-0.015 0.086-0.034 0.13-0.052v-0.477h-0.389c-0.001 0-0.002 0-0.004 0-0.009 0-0.017-0.001-0.025-0.004l0.001 0c-0.009-0.003-0.017-0.008-0.024-0.013l0 0c-0.006-0.005-0.011-0.010-0.015-0.017l-0-0c-0.003-0.006-0.005-0.012-0.005-0.019 0-0.001 0-0.001 0-0.002v0-0.163h0.755v0.813c-0.055 0.034-0.119 0.068-0.185 0.097l-0.009 0.004c-0.060 0.026-0.132 0.051-0.206 0.070l-0.010 0.002c-0.068 0.018-0.151 0.034-0.235 0.043l-0.008 0.001c-0.084 0.009-0.182 0.013-0.281 0.013-0.001 0-0.002 0-0.003 0h0c-0.004 0-0.008 0-0.013 0-0.171 0-0.335-0.029-0.488-0.082l0.010 0.003c-0.146-0.051-0.278-0.126-0.389-0.222-0.108-0.097-0.194-0.211-0.251-0.336s-0.090-0.272-0.090-0.426c0-0.005 0-0.009 0-0.014v0.001c-0-0.004-0-0.009-0-0.013 0-0.155 0.032-0.303 0.090-0.437l-0.003 0.007c0.056-0.126 0.141-0.24 0.251-0.336 0.111-0.095 0.243-0.17 0.389-0.22 0.15-0.050 0.323-0.079 0.502-0.079 0.007 0 0.014 0 0.021 0h-0.001c0.001 0 0.002 0 0.003 0 0.094 0 0.187 0.007 0.278 0.020l-0.010-0.001c0.088 0.012 0.166 0.031 0.241 0.056l-0.009-0.003c0.068 0.022 0.133 0.050 0.195 0.084 0.060 0.033 0.116 0.070 0.169 0.111l-0.093 0.131c-0.008 0.012-0.019 0.022-0.031 0.029l-0 0c-0.013 0.007-0.028 0.011-0.044 0.011h-0c-0.022-0.001-0.043-0.007-0.061-0.017l0.001 0c-0.039-0.019-0.070-0.035-0.101-0.053l0.006 0.003c-0.037-0.020-0.080-0.040-0.124-0.055l-0.006-0.002c-0.050-0.018-0.11-0.034-0.171-0.046l-0.008-0.001c-0.071-0.012-0.152-0.018-0.235-0.018-0.004 0-0.009 0-0.013 0h0.001c-0.004-0-0.008-0-0.012-0-0.13 0-0.255 0.022-0.372 0.061l0.008-0.002c-0.108 0.038-0.206 0.095-0.286 0.168-0.081 0.076-0.142 0.166-0.181 0.264-0.041 0.105-0.065 0.226-0.065 0.353s0.024 0.249 0.068 0.36l-0.002-0.007c0.043 0.1 0.109 0.191 0.195 0.267 0.080 0.073 0.177 0.13 0.284 0.168 0.124 0.037 0.255 0.051 0.385 0.042zM39.36 19.923h1.062v0.242h-1.387v-2.12h0.333l-0.008 1.879zM41.527 20.165h-0.333v-2.12h0.333v2.12zM42.764 18.054c0.020 0.010 0.037 0.023 0.051 0.039l1.422 1.598c-0.001-0.011-0.001-0.024-0.001-0.038s0.001-0.026 0.002-0.040l-0 0.002v-1.58h0.29v2.129h-0.167c-0.003 0-0.007 0-0.011 0-0.022 0-0.043-0.004-0.062-0.013l0.001 0c-0.020-0.011-0.038-0.024-0.052-0.040l-0-0-1.42-1.597v1.649h-0.278v-2.121h0.173c0.019 0 0.037 0.003 0.054 0.010zM46.977 18.044v0.233h-1.179v0.7h0.955v0.225h-0.955v0.724h1.179v0.233h-1.521v-2.115h1.521zM12.112 4.949l14.774 3.62v12.684l-14.774-3.618v-12.686zM11.165 3.868v14.383l16.667 4.085v-14.381l-16.667-4.086z"></path>
<path  d="M20.097 29.013l-16.669-4.088v-14.382l16.669 4.086v14.383z"></path>
<path  d="M11.441 4.786l14.581 3.574-6.201 5.352-14.583-3.576 6.203-5.351zM11.165 3.868l-7.736 6.675 16.669 4.086 7.734-6.675-16.667-4.086zM21.035 28.204l6.796-5.866-6.796-1.667v7.533z"></path>
</symbol>
<symbol id="facebook" viewBox="0 0 32 32">
<path  d="M21.329 5.313h2.921v-5.088c-0.504-0.069-2.237-0.225-4.256-0.225-4.212 0-7.097 2.649-7.097 7.519v4.481h-4.648v5.688h4.648v14.312h5.699v-14.311h4.46l0.708-5.688h-5.169v-3.919c0.001-1.644 0.444-2.769 2.735-2.769z"></path>
</symbol>
<symbol id="instagram" viewBox="0 0 32 32">
<path  d="M31.969 9.408c-0.075-1.7-0.35-2.869-0.744-3.882-0.406-1.075-1.031-2.038-1.851-2.838-0.78-0.792-1.724-1.419-2.778-1.826l-0.054-0.018c-1.019-0.394-2.181-0.669-3.882-0.744-1.713-0.081-2.257-0.1-6.601-0.1s-4.888 0.019-6.595 0.094c-1.7 0.075-2.869 0.35-3.882 0.744-1.075 0.406-2.038 1.031-2.838 1.85-0.792 0.78-1.419 1.724-1.826 2.778l-0.018 0.054c-0.394 1.019-0.669 2.181-0.744 3.882-0.081 1.713-0.1 2.257-0.1 6.601s0.019 4.888 0.094 6.595c0.075 1.7 0.35 2.869 0.744 3.882 0.427 1.11 1.056 2.057 1.849 2.837l0.001 0.001c0.78 0.792 1.724 1.419 2.778 1.826l0.054 0.018c1.019 0.394 2.182 0.669 3.882 0.744 1.706 0.075 2.25 0.094 6.595 0.094s4.888-0.019 6.595-0.094c1.7-0.075 2.869-0.35 3.882-0.744 2.157-0.85 3.832-2.525 4.663-4.627l0.019-0.055c0.394-1.019 0.669-2.182 0.744-3.882 0.075-1.707 0.094-2.25 0.094-6.595s-0.006-4.888-0.081-6.595zM29.087 22.473c-0.069 1.563-0.331 2.407-0.55 2.969-0.551 1.4-1.639 2.487-3.002 3.026l-0.036 0.013c-0.563 0.219-1.413 0.481-2.969 0.55-1.688 0.075-2.194 0.094-6.464 0.094s-4.782-0.019-6.464-0.094c-1.563-0.069-2.407-0.331-2.969-0.55-0.694-0.256-1.325-0.663-1.838-1.194-0.516-0.504-0.923-1.117-1.183-1.803l-0.011-0.034c-0.219-0.563-0.481-1.413-0.55-2.969-0.075-1.688-0.094-2.194-0.094-6.464s0.019-4.782 0.094-6.464c0.069-1.563 0.331-2.407 0.55-2.969 0.256-0.694 0.663-1.325 1.2-1.838 0.504-0.517 1.117-0.923 1.804-1.182l0.034-0.011c0.563-0.219 1.413-0.481 2.969-0.55 1.688-0.075 2.194-0.094 6.464-0.094 4.276 0 4.782 0.019 6.464 0.094 1.563 0.069 2.407 0.331 2.969 0.55 0.694 0.256 1.325 0.662 1.838 1.194 0.531 0.519 0.938 1.144 1.194 1.838 0.219 0.563 0.481 1.413 0.55 2.969 0.075 1.688 0.094 2.194 0.094 6.464s-0.019 4.77-0.094 6.458z"></path>
<path  d="M16.059 7.783c-4.538 0-8.22 3.682-8.22 8.22s3.682 8.22 8.22 8.22c4.539 0 8.22-3.682 8.22-8.22s-3.682-8.22-8.22-8.22zM16.059 21.335c-2.944 0-5.332-2.388-5.332-5.332s2.388-5.332 5.332-5.332c2.945 0 5.332 2.388 5.332 5.332s-2.388 5.332-5.332 5.332zM26.524 7.458c0 1.060-0.859 1.919-1.919 1.919s-1.919-0.859-1.919-1.919c0-1.060 0.859-1.919 1.919-1.919s1.919 0.859 1.919 1.919z"></path>
</symbol>
<symbol id="linkedin" viewBox="0 0 32 32">
<path  d="M31.992 32v-0.001h0.008v-11.736c0-5.741-1.236-10.164-7.948-10.164-3.227 0-5.392 1.771-6.276 3.449h-0.093v-2.913h-6.364v21.364h6.627v-10.579c0-2.785 0.528-5.479 3.977-5.479 3.399 0 3.449 3.179 3.449 5.657v10.401h6.62zM0.528 10.636h6.635v21.364h-6.635v-21.364zM3.843 0c-2.121 0-3.843 1.721-3.843 3.843s1.721 3.879 3.843 3.879c2.121 0 3.843-1.757 3.843-3.879-0.001-2.121-1.723-3.843-3.843-3.843z"></path>
</symbol>
<symbol id="twitter" viewBox="0 0 32 32">
<path  d="M32 6.078c-1.19 0.522-2.458 0.868-3.78 1.036 1.36-0.812 2.398-2.088 2.886-3.626-1.268 0.756-2.668 1.29-4.16 1.588-1.204-1.282-2.92-2.076-4.792-2.076-3.632 0-6.556 2.948-6.556 6.562 0 0.52 0.044 1.020 0.152 1.496-5.454-0.266-10.28-2.88-13.522-6.862-0.566 0.982-0.898 2.106-0.898 3.316 0 2.272 1.17 4.286 2.914 5.452-1.054-0.020-2.088-0.326-2.964-0.808v0.072c0 3.188 2.274 5.836 5.256 6.446-0.534 0.146-1.116 0.216-1.72 0.216-0.42 0-0.844-0.024-1.242-0.112 0.85 2.598 3.262 4.508 6.13 4.57-2.232 1.746-5.066 2.798-8.134 2.798-0.538 0-1.054-0.024-1.57-0.090 2.906 1.874 6.35 2.944 10.064 2.944 12.072 0 18.672-10 18.672-18.668 0-0.29-0.010-0.57-0.024-0.848 1.302-0.924 2.396-2.078 3.288-3.406z"></path>
</symbol>
<symbol id="icon-close" viewBox="0 0 32 32">
<path d="M32 3.223l-3.223-3.223-12.777 12.777-12.777-12.777-3.223 3.223 12.777 12.777-12.777 12.777 3.223 3.223 12.777-12.777 12.777 12.777 3.223-3.223-12.777-12.777 12.777-12.777z"></path>
</symbol>
<symbol id="icon-send" viewBox="0 0 38 32">
<path fill="#fff" style="fill: var(--color1, #fff)" d="M38.4 0l-38.4 18 12.272 3.788 18.928-14.788-14.397 16.186 0.012 0.004-0.014-0.004v8.814l6.882-6.691 8.718 2.691 6-28z"></path>
</symbol>
<symbol id="icon-person" viewBox="0 0 32 32">
<path d="M16 16c2.947 0 5.333-2.387 5.333-5.333s-2.387-5.333-5.333-5.333c-2.947 0-5.333 2.387-5.333 5.333s2.387 5.333 5.333 5.333zM16 18.667c-3.56 0-10.667 1.787-10.667 5.333v1.333c0 0.733 0.6 1.333 1.333 1.333h18.667c0.733 0 1.333-0.6 1.333-1.333v-1.333c0-3.547-7.107-5.333-10.667-5.333z"></path>
</symbol>
<symbol id="icon-phone" viewBox="0 0 24 32">
<path d="M19.635 18.487l-2.451-0.28c-0.589-0.067-1.167 0.135-1.582 0.55l-1.775 1.775c-2.731-1.389-4.969-3.618-6.359-6.359l1.785-1.785c0.415-0.415 0.618-0.994 0.55-1.582l-0.28-2.432c-0.116-0.975-0.936-1.708-1.92-1.708h-1.669c-1.090 0-1.997 0.907-1.93 1.997 0.511 8.24 7.102 14.821 15.332 15.332 1.090 0.068 1.997-0.839 1.997-1.93v-1.669c0.010-0.975-0.724-1.795-1.698-1.911z"></path>
</symbol>
<symbol id="icon-email" viewBox="0 0 24 32">
<path d="M20 8h-16c-1.1 0-1.99 0.9-1.99 2l-0.010 12c0 1.1 0.9 2 2 2h16c1.1 0 2-0.9 2-2v-12c0-1.1-0.9-2-2-2zM19.6 12.25l-7.070 4.42c-0.32 0.2-0.74 0.2-1.060 0l-7.070-4.42c-0.25-0.16-0.4-0.43-0.4-0.72 0-0.67 0.73-1.070 1.3-0.72l6.7 4.19 6.7-4.19c0.57-0.35 1.3 0.050 1.3 0.72 0 0.29-0.15 0.56-0.4 0.72z"></path>
</symbol>
<symbol id="icon-checkbox" viewBox="0 0 40 32">
<path d="M33.782 1.020c0.691-0.662 1.611-1.027 2.565-1.020s1.869 0.387 2.55 1.059c0.681 0.672 1.076 1.584 1.101 2.543s-0.321 1.891-0.966 2.598l-19.578 24.617c-0.337 0.365-0.743 0.657-1.195 0.86s-0.939 0.312-1.434 0.322c-0.495 0.009-0.986-0.082-1.445-0.268s-0.876-0.463-1.226-0.815l-12.984-13.054c-0.362-0.339-0.652-0.747-0.853-1.201s-0.309-0.944-0.318-1.441 0.082-0.99 0.267-1.451c0.185-0.461 0.461-0.879 0.81-1.231s0.766-0.628 1.224-0.814 0.949-0.277 1.443-0.269c0.494 0.009 0.981 0.118 1.433 0.32s0.858 0.494 1.195 0.857l10.275 10.325 17.042-21.83c0.031-0.038 0.063-0.074 0.098-0.109h-0.005z"></path>
</symbol>
<symbol id="icon-brgr-converted" viewBox="0 0 47 32">
<path d="M0.809 0.146c-0.22 0.115-0.406 0.263-0.56 0.44l-0.002 0.002-0.247 0.3v2.467l0.332 0.332c0.636 0.636-1.541 0.583 23.299 0.56l22.111-0.019 0.407-0.226 0.407-0.227v-3.375l-0.806-0.402-22.312 0.001c-21.538 0.001-22.324 0.007-22.629 0.145zM1.068 13.577c-0.359 0.109-0.742 0.384-0.909 0.653-0.141 0.23-0.159 0.384-0.159 1.413 0 1.004 0.020 1.187 0.151 1.401 0.217 0.355 0.735 0.628 1.365 0.72 0.742 0.108 43.091 0.108 43.831 0 0.295-0.042 0.679-0.156 0.854-0.252l0.316-0.175v-3.409l-0.698-0.39-22.268-0.013c-12.249-0.007-22.366 0.016-22.482 0.051zM1.219 27.086c-0.394 0.078-0.73 0.283-0.973 0.571l-0.002 0.003-0.244 0.279v2.498l0.332 0.332c0.636 0.634-1.541 0.582 23.299 0.56 20.798-0.019 22.127-0.028 22.383-0.154 0.573-0.285 0.543-0.17 0.543-2.022v-1.673l-0.892-0.438-22.076-0.012c-12.751-0.007-22.199 0.016-22.369 0.057z"></path>
</symbol>
<symbol id="icon-arrow_up_icon" viewBox="0 0 32 32">
<path   d="M18.221 7.206l9.585 9.585c0.879 0.879 0.879 2.317 0 3.195l-0.8 0.801c-0.877 0.878-2.316 0.878-3.194 0l-7.315-7.315-7.315 7.315c-0.878 0.878-2.317 0.878-3.194 0l-0.8-0.801c-0.879-0.878-0.879-2.316 0-3.195l9.587-9.585c0.471-0.472 1.103-0.682 1.723-0.647 0.617-0.035 1.25 0.175 1.723 0.647z"></path>
</symbol>
</defs>
</svg>


